<svg xmlns="http://www.w3.org/2000/svg" viewBox="0 0 57.02 63.85"><defs><style>.cls-1{fill:#c7501a;}</style></defs><g id="Capa_2" data-name="Capa 2"><g id="Capa_1-2" data-name="Capa 1"><path class="cls-1" d="M1.36,31.89a16.63,16.63,0,0,0,8.16,2.33c6.4,0,8.38-4.1,8.33-7.17-.06-5.18-4.71-7.41-9.52-7.41H5.55V15.89H8.33c3.62,0,8.21-1.88,8.21-6.27,0-3-1.87-5.58-6.46-5.58A13.48,13.48,0,0,0,2.72,6.49L1.42,2.85A17.36,17.36,0,0,1,11.05,0C18.3,0,21.59,4.33,21.59,8.83c0,3.81-2.27,7.06-6.8,8.71v.11C19.32,18.56,23,22,23,27.16c0,5.92-4.59,11.1-13.43,11.1A18.7,18.7,0,0,1,0,35.76Z"/><path class="cls-1" d="M28.78,28.24c0-4.67,2.78-8,7.31-9.91L36,18.16C32,16.23,30.2,13,30.2,9.85,30.2,4,35.13,0,41.59,0,48.73,0,52.3,4.5,52.3,9.11c0,3.13-1.53,6.49-6.07,8.66v.17c4.59,1.82,7.43,5.06,7.43,9.56,0,6.44-5.5,10.76-12.52,10.76C33.43,38.26,28.78,33.65,28.78,28.24ZM48.61,28c0-4.49-3.11-6.66-8.1-8.08-4.3,1.25-6.63,4.1-6.63,7.63-.17,3.76,2.67,7.06,7.37,7.06C45.72,34.62,48.61,31.83,48.61,28ZM34.9,9.51c0,3.7,2.78,5.69,7,6.83,3.17-1.08,5.61-3.36,5.61-6.72,0-3-1.76-6-6.23-6C37.17,3.59,34.9,6.32,34.9,9.51Z"/><path class="cls-1" d="M9.18,63.52,9,61.69H8.88a5.37,5.37,0,0,1-4.42,2.16A4.13,4.13,0,0,1,0,59.68c0-3.51,3.11-5.44,8.7-5.41V54c0-1.2-.33-3.36-3.29-3.36a7.2,7.2,0,0,0-3.77,1.08L1.09,50a8.91,8.91,0,0,1,4.75-1.29c4.42,0,5.49,3,5.49,5.94V60a20.44,20.44,0,0,0,.24,3.48ZM8.8,56.11c-2.87-.06-6.13.45-6.13,3.27A2.33,2.33,0,0,0,5.15,61.9a3.61,3.61,0,0,0,3.5-2.43,2.76,2.76,0,0,0,.15-.84Z"/><path class="cls-1" d="M15.58,52.92c0-1.5,0-2.73-.12-3.93h2.33l.15,2.4H18a5.31,5.31,0,0,1,4.78-2.73c2,0,5.11,1.2,5.11,6.18v8.68H25.26V55.14c0-2.34-.87-4.29-3.35-4.29a3.73,3.73,0,0,0-3.52,2.7,3.8,3.8,0,0,0-.18,1.23v8.74H15.58ZM18,46.49c-.06-2,.74-3.12,2-3.12a3.65,3.65,0,0,1,1.85.66,3,3,0,0,0,1.26.51c.47,0,.77-.27.83-1.29h1.41c0,2-.66,3-2.07,3a4,4,0,0,1-1.82-.6,2.61,2.61,0,0,0-1.28-.54c-.48,0-.72.51-.78,1.35Z"/><path class="cls-1" d="M45.24,56.14c0,5.37-3.7,7.71-7.2,7.71-3.91,0-6.93-2.88-6.93-7.47,0-4.87,3.17-7.72,7.17-7.72C42.44,48.66,45.24,51.69,45.24,56.14Zm-11.47.15c0,3.18,1.82,5.58,4.39,5.58s4.4-2.37,4.4-5.64c0-2.47-1.23-5.59-4.34-5.59S33.77,53.52,33.77,56.29Z"/><path class="cls-1" d="M48.2,60.82a6.88,6.88,0,0,0,3.47,1c1.91,0,2.81-1,2.81-2.16s-.75-2-2.69-2.67c-2.6-.93-3.83-2.38-3.83-4.12,0-2.34,1.89-4.26,5-4.26a7.21,7.21,0,0,1,3.56.9l-.66,1.92a5.61,5.61,0,0,0-3-.84c-1.55,0-2.42.9-2.42,2s.87,1.74,2.75,2.46c2.51,1,3.8,2.23,3.8,4.39,0,2.55-2,4.35-5.41,4.35a8.24,8.24,0,0,1-4.07-1Z"/></g></g></svg>