<svg xmlns="http://www.w3.org/2000/svg" viewBox="0 0 73.35 73.31"><defs><style>.cls-1{fill:none;stroke:#c7501a;stroke-linecap:round;stroke-linejoin:round;stroke-width:2px;}</style></defs><g id="Capa_2" data-name="Capa 2"><g id="Capa_1-2" data-name="Capa 1"><path class="cls-1" d="M38.79,26.07l3.5,7a2.34,2.34,0,0,0,1.77,1.27l7.83,1.12a2.32,2.32,0,0,1,1.3,4l-5.66,5.44a2.32,2.32,0,0,0-.68,2.06l1.35,7.68a2.36,2.36,0,0,1-3.43,2.45l-7-3.63a2.44,2.44,0,0,0-2.2,0l-7,3.63a2.36,2.36,0,0,1-3.18-1,2.38,2.38,0,0,1-.25-1.48l1.35-7.68a2.32,2.32,0,0,0-.68-2.06l-5.67-5.44a2.31,2.31,0,0,1-.06-3.27,2.23,2.23,0,0,1,1.36-.69l7.83-1.13a2.36,2.36,0,0,0,1.78-1.27l3.5-7a2.38,2.38,0,0,1,4.22,0Z"/><path class="cls-1" d="M36,4.4H57.25a10,10,0,0,1,10,10V15"/><path class="cls-1" d="M62.76,15h-15a9.6,9.6,0,0,1-8-4.38l-3.4-5.24A9.6,9.6,0,0,0,28.21,1H10.6A9.6,9.6,0,0,0,1,10.6V62.72a9.63,9.63,0,0,0,9.6,9.59H62.76a9.62,9.62,0,0,0,9.59-9.59V24.59A9.62,9.62,0,0,0,62.76,15Z"/></g></g></svg>