<svg xmlns="http://www.w3.org/2000/svg" viewBox="0 0 67.07 67.26"><defs><style>.cls-1{fill:none;stroke:#c7501a;stroke-linecap:round;stroke-linejoin:round;stroke-width:2px;}</style></defs><g id="Capa_2" data-name="Capa 2"><g id="Capa_1-2" data-name="Capa 1"><path class="cls-1" d="M46.34,66.26H10.5A9.53,9.53,0,0,1,1,56.76V20.64a9.53,9.53,0,0,1,9.5-9.5H56.57a9.53,9.53,0,0,1,9.5,9.5V47.3"/><path class="cls-1" d="M20.73,66.26H56.57a9.53,9.53,0,0,0,9.5-9.5V20.64a9.53,9.53,0,0,0-9.5-9.5H10.5A9.53,9.53,0,0,0,1,20.64V47.3"/><path class="cls-1" d="M1,34.18s30.39,18.21,65.07,0"/><line class="cls-1" x1="33.54" y1="46.67" x2="33.54" y2="42.27"/><path class="cls-1" d="M20.44,11h0a10.07,10.07,0,0,1,10-10h6.11a10.07,10.07,0,0,1,10,10"/></g></g></svg>