<svg xmlns="http://www.w3.org/2000/svg" viewBox="0 0 92.83 59.69"><defs><style>.cls-1{fill:none;stroke:#c7501a;stroke-miterlimit:10;stroke-width:2px;}</style></defs><g id="Capa_2" data-name="Capa 2"><g id="Capa_1-2" data-name="Capa 1"><path class="cls-1" d="M18.76,23.67a11.34,11.34,0,1,0-.08,0Z"/><path class="cls-1" d="M74.1,23.67a11.34,11.34,0,1,0-.08,0Z"/><path class="cls-1" d="M36.1,35.14C34.37,29.81,27.11,24,18.72,24,9.14,24,1,31.6,1,37.4s8.12,7.29,17.75,7.29a63.68,63.68,0,0,0,7-.34A23.19,23.19,0,0,1,36.1,35.14Z"/><path class="cls-1" d="M74.06,24c-8.38,0-15.66,5.81-17.35,11.15a23.25,23.25,0,0,1,10.36,9.18,62.1,62.1,0,0,0,7,.35c9.57,0,17.74-1.45,17.74-7.24S83.68,24,74.06,24Z"/><path class="cls-1" d="M67.07,44.34a23.25,23.25,0,0,0-10.36-9.18,23.68,23.68,0,0,0-20.61,0,23.19,23.19,0,0,0-10.38,9.21,11,11,0,0,0-1.52,5.21c0,7.25,10.17,9.13,22.22,9.13s22.22-1.82,22.22-9.07A11,11,0,0,0,67.07,44.34Z"/><path class="cls-1" d="M46.43,32.37a14.19,14.19,0,1,0-.1,0Z"/></g></g></svg>