<svg id="Capa_1" data-name="Capa 1" xmlns="http://www.w3.org/2000/svg" viewBox="0 0 24 24"><defs><style>.cls-1{fill:none;stroke:#000;stroke-linecap:round;stroke-linejoin:round;stroke-width:0.6px;}</style></defs><path class="cls-1" d="M23.08,8.66a5,5,0,0,0-1.88.8,4.46,4.46,0,0,1-1.83.8,3.44,3.44,0,0,1-2-1.08,2.47,2.47,0,0,0-1.67-.51h0a4.94,4.94,0,0,0-1.87.8,4.53,4.53,0,0,1-1.83.8,3.46,3.46,0,0,1-2-1.08,2.45,2.45,0,0,0-1.66-.51h0a5,5,0,0,0-1.88.8,4.46,4.46,0,0,1-1.83.8,3.44,3.44,0,0,1-2-1.08A2.47,2.47,0,0,0,.92,8.67"/><path class="cls-1" d="M23.08,11.2a5,5,0,0,0-1.88.8,4.46,4.46,0,0,1-1.83.8,3.44,3.44,0,0,1-2-1.08,2.47,2.47,0,0,0-1.67-.51h0a4.94,4.94,0,0,0-1.87.8,4.53,4.53,0,0,1-1.83.8,3.46,3.46,0,0,1-2-1.08,2.45,2.45,0,0,0-1.66-.51h0a5,5,0,0,0-1.88.8,4.46,4.46,0,0,1-1.83.8,3.44,3.44,0,0,1-2-1.08,2.47,2.47,0,0,0-1.67-.51"/><path class="cls-1" d="M23.08,13.74a5,5,0,0,0-1.88.8,4.46,4.46,0,0,1-1.83.8,3.44,3.44,0,0,1-2-1.08,2.51,2.51,0,0,0-1.67-.52h0a4.94,4.94,0,0,0-1.87.8,4.53,4.53,0,0,1-1.83.8,3.46,3.46,0,0,1-2-1.08,2.49,2.49,0,0,0-1.66-.52h0a5,5,0,0,0-1.88.8,4.46,4.46,0,0,1-1.83.8,3.44,3.44,0,0,1-2-1.08,2.51,2.51,0,0,0-1.67-.52"/></svg>