<svg id="Capa_1" data-name="Capa 1" xmlns="http://www.w3.org/2000/svg" viewBox="0 0 24 24"><defs><style>.cls-1{fill:none;stroke:#000;stroke-linecap:round;stroke-linejoin:round;stroke-width:0.6px;}</style></defs><rect class="cls-1" x="3.68" y="5.92" width="2.21" height="12.16" rx="0.6"/><rect class="cls-1" x="8.49" y="5.92" width="2.21" height="12.16" rx="0.6"/><rect class="cls-1" x="13.3" y="5.92" width="2.21" height="12.16" rx="0.6"/><rect class="cls-1" x="18.11" y="5.92" width="2.21" height="12.16" rx="0.6"/><line class="cls-1" x1="1.74" y1="8.11" x2="3.68" y2="8.11"/><line class="cls-1" x1="1.74" y1="12" x2="3.68" y2="12"/><line class="cls-1" x1="1.74" y1="16.15" x2="3.68" y2="16.15"/><line class="cls-1" x1="20.32" y1="8.11" x2="22.26" y2="8.11"/><line class="cls-1" x1="20.32" y1="12" x2="22.26" y2="12"/><line class="cls-1" x1="20.32" y1="16.15" x2="22.26" y2="16.15"/><line class="cls-1" x1="5.89" y1="8.11" x2="8.49" y2="8.11"/><line class="cls-1" x1="5.89" y1="12" x2="8.49" y2="12"/><line class="cls-1" x1="5.89" y1="16.15" x2="8.49" y2="16.15"/><line class="cls-1" x1="10.7" y1="8.11" x2="13.3" y2="8.11"/><line class="cls-1" x1="10.7" y1="12" x2="13.3" y2="12"/><line class="cls-1" x1="10.7" y1="16.15" x2="13.3" y2="16.15"/><line class="cls-1" x1="15.51" y1="8.11" x2="18.11" y2="8.11"/><line class="cls-1" x1="15.51" y1="12" x2="18.11" y2="12"/><line class="cls-1" x1="15.51" y1="16.15" x2="18.11" y2="16.15"/></svg>