<svg xmlns="http://www.w3.org/2000/svg" viewBox="0 0 20.67 20.66"><defs><style>.cls-1{fill:none;stroke:#050504;stroke-linecap:round;stroke-linejoin:round;stroke-width:0.6px;}</style></defs><g id="Capa_2" data-name="Capa 2"><g id="Capa_1-2" data-name="Capa 1"><g id="Iconly_Light_Star" data-name="Iconly Light Star"><g id="Star-4"><path id="Stroke_1-68" data-name="Stroke 1-68" class="cls-1" d="M10.94,7.35l1,2a.67.67,0,0,0,.5.36l2.2.31a.65.65,0,0,1,.56.73.69.69,0,0,1-.19.39L13.4,12.64a.66.66,0,0,0-.2.58l.38,2.16a.67.67,0,0,1-1,.69l-2-1a.68.68,0,0,0-.62,0l-2,1a.67.67,0,0,1-.9-.28.72.72,0,0,1-.07-.41l.38-2.16a.63.63,0,0,0-.19-.58L5.7,11.11A.66.66,0,0,1,6.06,10l2.21-.31a.69.69,0,0,0,.5-.36l1-2a.66.66,0,0,1,.9-.28A.71.71,0,0,1,10.94,7.35Z"/></g></g><path class="cls-1" d="M10,1.26h6a2.83,2.83,0,0,1,2.83,2.82v.16"/><path class="cls-1" d="M17.67,4.24H13.44A2.73,2.73,0,0,1,11.17,3l-.95-1.48A2.7,2.7,0,0,0,8,.3H3A2.7,2.7,0,0,0,.3,3V17.66A2.71,2.71,0,0,0,3,20.36H17.67a2.71,2.71,0,0,0,2.7-2.7V6.94A2.71,2.71,0,0,0,17.67,4.24Z"/></g></g></svg>