<svg id="Capa_1" data-name="Capa 1" xmlns="http://www.w3.org/2000/svg" viewBox="0 0 24 24"><defs><style>.cls-1{fill:none;stroke:#000;stroke-linecap:round;stroke-linejoin:round;stroke-width:0.6px;}</style></defs><line class="cls-1" x1="21.07" y1="11.96" x2="21.07" y2="16.74"/><path class="cls-1" d="M23.08,12.53a2,2,0,0,1-4,0c0-1.12.9-4.72,2-4.72S23.08,11.41,23.08,12.53Z"/><polyline class="cls-1" points="16.8 16.74 16.8 10.88 18.08 10.88 16.27 7.26 2.73 7.26 0.92 10.79 2.24 10.79 2.24 16.74 23.08 16.74"/><polyline class="cls-1" points="4.82 10.88 6.92 10.88 9.5 8.29 11.99 10.88 14.2 10.88"/><polyline class="cls-1" points="7.9 16.74 7.9 11.54 11.01 11.54 11.01 16.74"/><rect class="cls-1" x="3.74" y="12.49" width="2.58" height="1.96"/><rect class="cls-1" x="12.72" y="12.49" width="2.58" height="1.96"/></svg>