<svg xmlns="http://www.w3.org/2000/svg" viewBox="0 0 17.46 12.76"><defs><style>.cls-1{fill:none;stroke:#222221;stroke-linecap:round;stroke-linejoin:round;stroke-width:0.6px;}</style></defs><g id="Capa_2" data-name="Capa 2"><g id="Capa_1-2" data-name="Capa 1"><path class="cls-1" d="M16.17,5.06c-.27-.26-.75-.64-1-.84a1.12,1.12,0,0,1-.29-.36L14.09,2.3a3.59,3.59,0,0,0-3.22-2H6.59a3.59,3.59,0,0,0-3.22,2L2.59,3.86a1.12,1.12,0,0,1-.29.36,12.47,12.47,0,0,0-1,.84,1.44,1.44,0,0,0-.49,1V9.7a.74.74,0,0,0,.75.82H15.9a.74.74,0,0,0,.75-.82V6.06A1.4,1.4,0,0,0,16.17,5.06Z"/><polyline class="cls-1" points="17.16 2.98 16.3 2.98 12.92 4.98 8.73 4.98 4.54 4.98 1.15 2.98 0.3 2.98"/><line class="cls-1" x1="2.36" y1="7.21" x2="4.89" y2="7.21"/><line class="cls-1" x1="6.25" y1="8.59" x2="11.46" y2="8.59"/><line class="cls-1" x1="12.56" y1="7.21" x2="15.1" y2="7.21"/><path class="cls-1" d="M1.57,10.52H4.43a0,0,0,0,1,0,0v1.34a.6.6,0,0,1-.6.6H2.17a.6.6,0,0,1-.6-.6V10.52A0,0,0,0,1,1.57,10.52Z"/><path class="cls-1" d="M13,10.52h2.86a0,0,0,0,1,0,0v1.34a.6.6,0,0,1-.6.6H13.62a.6.6,0,0,1-.6-.6V10.52A0,0,0,0,1,13,10.52Z"/></g></g></svg>