<svg xmlns="http://www.w3.org/2000/svg" viewBox="0 0 18.6 18.56"><defs><style>.cls-1{fill:none;stroke:#be5124;stroke-linecap:round;stroke-linejoin:round;stroke-width:0.6px;}</style></defs><g id="Capa_2" data-name="Capa 2"><g id="Capa_1-2" data-name="Capa 1"><path class="cls-1" d="M.3,14.66v.9A2.7,2.7,0,0,0,3,18.26H5.52A1.08,1.08,0,0,0,6.6,17.18V14.66"/><path class="cls-1" d="M18.3,14.66v.9a2.7,2.7,0,0,1-2.7,2.7H13.08A1.08,1.08,0,0,1,12,17.18V14.66"/><path class="cls-1" d="M6.6,15.56V14.21A1.34,1.34,0,0,1,8,12.86h2.7A1.34,1.34,0,0,1,12,14.21v1.35"/><path class="cls-1" d="M.3,14.66V7.38a1.87,1.87,0,0,1,.77-1.51L8,.74a2.25,2.25,0,0,1,2.68,0l6.89,5.13a1.87,1.87,0,0,1,.77,1.51v7.28"/></g></g></svg>