<svg id="Capa_1" data-name="Capa 1" xmlns="http://www.w3.org/2000/svg" viewBox="0 0 24 24"><defs><style>.cls-1{fill:none;stroke:#000;stroke-linecap:round;stroke-linejoin:round;stroke-width:0.6px;}</style></defs><path class="cls-1" d="M3.61,17.92H7.06v-3a1,1,0,0,1,1-1H9.41a1,1,0,0,1,1,1v3h3.4V11.09a1,1,0,0,0-.28-.68l-4.05-4a1,1,0,0,0-1.36,0L4,10.47a1,1,0,0,0-.28.67Z"/><line class="cls-1" x1="1.74" y1="17.92" x2="22.26" y2="17.92"/><line class="cls-1" x1="19.79" y1="12.5" x2="19.79" y2="17.92"/><path class="cls-1" d="M22.07,13.14a2.29,2.29,0,0,1-4.57,0c0-1.27,1-5.36,2.29-5.36S22.07,11.87,22.07,13.14Z"/><path class="cls-1" d="M10.27,11.47a1.58,1.58,0,0,0-3.16,0v1h3.16Z"/></svg>