<svg xmlns="http://www.w3.org/2000/svg" viewBox="0 0 16.26 16.27"><defs><style>.cls-1{fill:none;stroke:#fff;stroke-linecap:round;stroke-linejoin:round;stroke-width:0.77px;}</style></defs><title>icono-whatsapp-white</title><g id="Capa_2" data-name="Capa 2"><g id="Capa_1-2" data-name="Capa 1"><path class="cls-1" d="M7.52,8.51c1.93,3.32,2.88.12,3.81,1.71.6,1,1.79,1.82-.42,3.1-.24.11-2,1.65-5.13-3.8S4.79,3.33,5,3.18c2.21-1.29,2.3.13,2.9,1.17C8.83,5.94,5.59,5.2,7.52,8.51Z"/><path class="cls-1" d="M3.82,14.64a7.89,7.89,0,0,0,9.79-1,7.75,7.75,0,0,0-10.95-11,7.91,7.91,0,0,0-1,9.8"/><polyline class="cls-1" points="1.63 12.45 0.53 15.73 3.81 14.64"/></g></g></svg>