<svg id="Capa_1" data-name="Capa 1" xmlns="http://www.w3.org/2000/svg" viewBox="0 0 24 24"><defs><style>.cls-1{fill:none;stroke:#000;stroke-linecap:round;stroke-linejoin:round;stroke-width:0.6px;}</style></defs><path class="cls-1" d="M3,19.34H21a1.48,1.48,0,0,0,1.47-1.48V9.66a1.47,1.47,0,0,0-.93-1.37l-9-3.52a1.47,1.47,0,0,0-1.09,0l-9,3.61a1.48,1.48,0,0,0-.92,1.37v8.11A1.48,1.48,0,0,0,3,19.34Z"/><path class="cls-1" d="M2.38,19.1l5.4-5.17a1.48,1.48,0,0,1,2.08,0l5.23,5.37"/><path class="cls-1" d="M21.77,19.1l-4.28-4.4a1.47,1.47,0,0,0-2.12,0L13,17.17"/></svg>