<svg id="Capa_1" data-name="Capa 1" xmlns="http://www.w3.org/2000/svg" viewBox="0 0 24 24"><defs><style>.cls-1{fill:none;stroke:#000;stroke-linecap:round;stroke-linejoin:round;stroke-width:0.6px;}</style></defs><line class="cls-1" x1="3.22" y1="12" x2="3.22" y2="17.55"/><path class="cls-1" d="M1.81,8.41l-.5,3.52c-.21,1.46.49,2.85,1.44,2.85h1c.93,0,1.63-1.35,1.45-2.79L4.7,8.47C4.39,6,2.16,6,1.81,8.41Z"/><line class="cls-1" x1="9.11" y1="11.29" x2="9.11" y2="16.84"/><path class="cls-1" d="M7.7,7.7l-.5,3.52c-.21,1.46.49,2.85,1.44,2.85h.95c.93,0,1.63-1.35,1.45-2.79L10.6,7.76C10.29,5.29,8.05,5.24,7.7,7.7Z"/><line class="cls-1" x1="14.97" y1="11.29" x2="14.97" y2="16.84"/><path class="cls-1" d="M13.56,7.7l-.51,3.52c-.2,1.46.5,2.85,1.45,2.85h.94c.94,0,1.64-1.35,1.45-2.79l-.44-3.52C16.14,5.29,13.91,5.24,13.56,7.7Z"/><line class="cls-1" x1="20.76" y1="12" x2="20.76" y2="17.55"/><path class="cls-1" d="M19.35,8.41l-.51,3.52c-.21,1.46.5,2.85,1.45,2.85h.94c.93,0,1.63-1.35,1.45-2.79l-.44-3.52C21.93,6,19.7,6,19.35,8.41Z"/><path class="cls-1" d="M1,18.07s8.75-2.51,21.94.05"/></svg>