<svg xmlns="http://www.w3.org/2000/svg" viewBox="0 0 18.6 17.6"><defs><style>.cls-1,.cls-2{fill:none;stroke-linecap:round;stroke-linejoin:round;stroke-width:0.6px;}.cls-1{stroke:#000;}.cls-2{stroke:#010200;}</style></defs><g id="Capa_2" data-name="Capa 2"><g id="Capa_1-2" data-name="Capa 1"><path class="cls-1" d="M18.3,12.3c-1.9,0-2.58,1-4.48,1s-2.62-1-4.52-1-2.6,1-4.5,1-2.6-1-4.5-1"/><path class="cls-1" d="M18.3,14.3c-1.9,0-2.58,1-4.48,1s-2.62-1-4.52-1-2.6,1-4.5,1-2.6-1-4.5-1"/><path class="cls-1" d="M18.3,16.3c-1.9,0-2.58,1-4.48,1s-2.62-1-4.52-1-2.6,1-4.5,1-2.6-1-4.5-1"/><line class="cls-2" x1="4.3" y1="11.3" x2="4.3" y2="3.3"/><path class="cls-2" d="M4.3,3.3c0-2,.67-3,2-3s2,1,2,3"/><line class="cls-2" x1="11.3" y1="11.3" x2="11.3" y2="3.3"/><path class="cls-2" d="M11.3,3.3c0-2,.67-3,2-3s2,1,2,3"/><line class="cls-2" x1="4.31" y1="5.28" x2="11.3" y2="5.3"/><line class="cls-2" x1="4.31" y1="7.28" x2="11.3" y2="7.3"/><line class="cls-2" x1="4.31" y1="9.28" x2="11.3" y2="9.3"/></g></g></svg>