<svg id="Capa_1" data-name="Capa 1" xmlns="http://www.w3.org/2000/svg" viewBox="0 0 24 24"><defs><style>.cls-1{fill:none;stroke:#000;stroke-linecap:round;stroke-linejoin:round;stroke-width:0.6px;}</style></defs><path class="cls-1" d="M7.43,8.45,5.73,6.69a.65.65,0,0,0-.94,0L3.1,8.45a.68.68,0,0,0-.19.46v7.94a.67.67,0,0,0,.67.66H7a.67.67,0,0,0,.66-.66V8.91A.72.72,0,0,0,7.43,8.45Z"/><path class="cls-1" d="M14.19,8.45,12.5,6.7a.66.66,0,0,0-.95,0L9.86,8.45a.67.67,0,0,0-.18.46v7.94a.66.66,0,0,0,.66.66h3.37a.66.66,0,0,0,.66-.66V8.91A.67.67,0,0,0,14.19,8.45Z"/><path class="cls-1" d="M20.9,8.45,19.22,6.7a.67.67,0,0,0-1,0L16.57,8.45a.72.72,0,0,0-.18.46v7.94a.67.67,0,0,0,.66.66h3.37a.67.67,0,0,0,.67-.66V8.91A.68.68,0,0,0,20.9,8.45Z"/><line class="cls-1" x1="1" y1="9.44" x2="2.91" y2="9.44"/><line class="cls-1" x1="1" y1="15.51" x2="2.91" y2="15.51"/><line class="cls-1" x1="21.09" y1="9.44" x2="23" y2="9.44"/><line class="cls-1" x1="21.09" y1="15.51" x2="23" y2="15.51"/><line class="cls-1" x1="7.61" y1="9.44" x2="9.68" y2="9.44"/><line class="cls-1" x1="7.61" y1="15.51" x2="9.68" y2="15.51"/><line class="cls-1" x1="14.37" y1="9.44" x2="16.39" y2="9.44"/><line class="cls-1" x1="14.37" y1="15.51" x2="16.39" y2="15.51"/></svg>