<svg xmlns="http://www.w3.org/2000/svg" viewBox="0 0 20.6 20.61"><defs><style>.cls-1,.cls-2{fill:none;stroke-linecap:round;stroke-linejoin:round;stroke-width:0.6px;}.cls-1{stroke:#050504;}.cls-2{stroke:#2e3131;}</style></defs><g id="Capa_2" data-name="Capa 2"><g id="Capa_1-2" data-name="Capa 1"><g id="Iconly_Light_Call" data-name="Iconly Light Call"><g id="Call-5"><path id="Stroke_1-28" data-name="Stroke 1-28" class="cls-1" d="M9.51,10.79c2.49,4.29,3.71.15,4.91,2.21.79,1.35,2.32,2.34-.54,4-.3.14-2.52,2.13-6.62-4.91s-1.27-8-1-8.18c2.85-1.67,3,.17,3.75,1.5C11.21,7.47,7,6.52,9.51,10.79Z"/></g></g><path class="cls-2" d="M4.73,18.7a10.17,10.17,0,0,0,12.64-1.33A10,10,0,0,0,3.23,3.23,10.19,10.19,0,0,0,1.9,15.87"/><polyline class="cls-2" points="1.9 15.87 0.48 20.12 4.73 18.7"/></g></g></svg>