<svg xmlns="http://www.w3.org/2000/svg" viewBox="0 0 19.1 19.06"><defs><style>.cls-1{fill:none;stroke:#be5124;stroke-linecap:round;stroke-linejoin:round;stroke-width:1.1px;}</style></defs><g id="Capa_2" data-name="Capa 2"><g id="Capa_1-2" data-name="Capa 1"><path class="cls-1" d="M.55,14.91v.9a2.7,2.7,0,0,0,2.7,2.7H5.77a1.08,1.08,0,0,0,1.08-1.08V14.91"/><path class="cls-1" d="M18.55,14.91v.9a2.7,2.7,0,0,1-2.7,2.7H13.33a1.08,1.08,0,0,1-1.08-1.08V14.91"/><path class="cls-1" d="M6.85,15.81V14c0-1,.6-1.86,1.35-1.86h2.7c.75,0,1.35.83,1.35,1.86v1.86"/><path class="cls-1" d="M.55,14.91V7.63a1.87,1.87,0,0,1,.77-1.51L8.21,1a2.25,2.25,0,0,1,2.68,0l6.89,5.13a1.9,1.9,0,0,1,.77,1.51v7.28"/></g></g></svg>