<svg xmlns="http://www.w3.org/2000/svg" viewBox="0 0 15.45 15.45"><defs><style>.cls-1{fill:#363d3d;}</style></defs><title>icono-instagram</title><g id="Capa_2" data-name="Capa 2"><g id="Capa_1-2" data-name="Capa 1"><path class="cls-1" d="M5.15,7.73A2.58,2.58,0,1,1,7.73,10.3,2.57,2.57,0,0,1,5.15,7.73m-1.39,0a4,4,0,1,0,4-4,4,4,0,0,0-4,4M10.92,3.6a.93.93,0,1,0,.93-.92.93.93,0,0,0-.93.92M4.6,14a4.26,4.26,0,0,1-1.43-.27,2.41,2.41,0,0,1-.89-.58,2.33,2.33,0,0,1-.58-.89,4.33,4.33,0,0,1-.26-1.43c0-.82-.05-1.06-.05-3.12s0-2.31.05-3.13A4.33,4.33,0,0,1,1.7,3.17a2.41,2.41,0,0,1,.58-.89,2.41,2.41,0,0,1,.89-.58A4.33,4.33,0,0,1,4.6,1.44c.82,0,1.06-.05,3.13-.05s2.3,0,3.12.05a4.33,4.33,0,0,1,1.43.26,2.41,2.41,0,0,1,.89.58,2.41,2.41,0,0,1,.58.89A4.26,4.26,0,0,1,14,4.6c0,.82,0,1.06,0,3.13s0,2.3,0,3.12a4.26,4.26,0,0,1-.27,1.43,2.33,2.33,0,0,1-.58.89,2.41,2.41,0,0,1-.89.58,4.26,4.26,0,0,1-1.43.27c-.82,0-1.06,0-3.12,0s-2.31,0-3.13,0M4.54.05A5.48,5.48,0,0,0,2.67.41,3.68,3.68,0,0,0,1.3,1.3,3.68,3.68,0,0,0,.41,2.67,5.25,5.25,0,0,0,.05,4.54c0,.82,0,1.09,0,3.19s0,2.36.05,3.18a5.26,5.26,0,0,0,.36,1.88,3.68,3.68,0,0,0,.89,1.37,3.8,3.8,0,0,0,1.37.89,5.73,5.73,0,0,0,1.87.36c.82,0,1.09,0,3.19,0s2.36,0,3.18,0a5.79,5.79,0,0,0,1.88-.36,3.93,3.93,0,0,0,2.26-2.26,5.74,5.74,0,0,0,.36-1.88c0-.82,0-1.09,0-3.18s0-2.37,0-3.19a5.73,5.73,0,0,0-.36-1.87,3.8,3.8,0,0,0-.89-1.37A3.68,3.68,0,0,0,12.79.41,5.54,5.54,0,0,0,10.91.05c-.82,0-1.08,0-3.18,0S5.36,0,4.54.05"/></g></g></svg>