<svg xmlns="http://www.w3.org/2000/svg" viewBox="0 0 14.96 14.96"><defs><style>.cls-1{fill:#363d3d;}</style></defs><title>icono-idioma</title><g id="Capa_2" data-name="Capa 2"><g id="Capa_1-2" data-name="Capa 1"><path class="cls-1" d="M7.48,0A7.48,7.48,0,1,0,15,7.48,7.49,7.49,0,0,0,7.48,0M14,7H10.74A11.28,11.28,0,0,0,9.3,1.2,6.55,6.55,0,0,1,14,7M7.48,14C6.42,14,5.25,11.55,5.15,8H9.81C9.71,11.55,8.54,14,7.48,14M5.15,7C5.25,3.41,6.42.94,7.48.94S9.71,3.41,9.81,7ZM5.66,1.2A11.28,11.28,0,0,0,4.22,7H1A6.55,6.55,0,0,1,5.66,1.2M1,8H4.22a11.28,11.28,0,0,0,1.44,5.81A6.55,6.55,0,0,1,1,8M9.3,13.76A11.28,11.28,0,0,0,10.74,8H14a6.55,6.55,0,0,1-4.7,5.81"/></g></g></svg>