<svg xmlns="http://www.w3.org/2000/svg" viewBox="0 0 17.94 17.94"><defs><style>.cls-1{fill:none;stroke:#363d3d;stroke-miterlimit:10;}</style></defs><title>icono-whatsapp</title><g id="Capa_2" data-name="Capa 2"><g id="Capa_1-2" data-name="Capa 1"><path class="cls-1" d="M8.37,9.32c2.1,3.6,3.13.12,4.13,1.85.66,1.13,1.95,2-.45,3.37-.25.11-2.12,1.78-5.57-4.13S5.42,3.69,5.64,3.53c2.4-1.4,2.5.15,3.15,1.27C9.8,6.53,6.28,5.73,8.37,9.32Z"/><path class="cls-1" d="M4.36,16A8.55,8.55,0,0,0,15,14.84,8.4,8.4,0,0,0,3.1,3,8.57,8.57,0,0,0,2,13.59"/><polyline class="cls-1" points="1.98 13.59 0.79 17.15 4.36 15.96"/></g></g></svg>