<svg xmlns="http://www.w3.org/2000/svg" viewBox="0 0 28.79 20.23"><defs><style>.cls-1{fill:#363d3d;}</style></defs><title>icono-youtube</title><g id="Capa_2" data-name="Capa 2"><g id="Capa_1-2" data-name="Capa 1"><path class="cls-1" d="M28.19,3.17A3.64,3.64,0,0,0,25.65.55C23.4,0,14.39,0,14.39,0s-9,0-11.25.6A3.67,3.67,0,0,0,.6,3.22,38.2,38.2,0,0,0,0,10.14a38.86,38.86,0,0,0,.6,7,3.65,3.65,0,0,0,2.54,2.51c2.25.6,11.25.6,11.25.6s9,0,11.26-.6A3.66,3.66,0,0,0,28.19,17a37.65,37.65,0,0,0,.6-6.87,38.75,38.75,0,0,0-.6-7M11.45,14.42V5.86L19,10.14Z"/></g></g></svg>