<svg xmlns="http://www.w3.org/2000/svg" viewBox="0 0 16.8 15.58"><defs><style>.cls-1{fill:#363d3d;}</style></defs><title>icono-linkedin</title><g id="Capa_2" data-name="Capa 2"><g id="Capa_1-2" data-name="Capa 1"><path class="cls-1" d="M12.77,5a4,4,0,0,0-1.88.44A3.09,3.09,0,0,0,9.61,6.57a.24.24,0,0,1-.22.13H9.34a.25.25,0,0,1-.25-.25V5H6.18V15.58H9.24V10.46A4.16,4.16,0,0,1,9.65,8.4a2.1,2.1,0,0,1,2-1,1.78,1.78,0,0,1,1.84,1.13,5.24,5.24,0,0,1,.27,2v5H16.8V9.87a6.53,6.53,0,0,0-.74-3.54A3.61,3.61,0,0,0,12.77,5"/><path class="cls-1" d="M1.6,0A1.61,1.61,0,0,0,.47,2.74,1.61,1.61,0,1,0,1.6,0"/><rect class="cls-1" y="4.94" width="3.21" height="10.63"/></g></g></svg>