<svg xmlns="http://www.w3.org/2000/svg" viewBox="0 0 206.99 46.07"><defs><style>.cls-1{fill:#ad5124;}</style></defs><title>meikle-logo-orange</title><g id="Capa_2" data-name="Capa 2"><g id="Capa_1-2" data-name="Capa 1"><path class="cls-1" d="M60.85,45.4H41.51v-.23a6.09,6.09,0,0,0,3-2.8,14.7,14.7,0,0,0,.65-5.1V24.1a4.36,4.36,0,0,0-1.69-3.72,6.46,6.46,0,0,0-4-1.29,11.7,11.7,0,0,0-3.54.41,11.87,11.87,0,0,1,.8,4.6V37.27a14.53,14.53,0,0,0,.66,5.1,5.73,5.73,0,0,0,3,2.8v.23H21.09v-.23a5.89,5.89,0,0,0,3-2.8,14.41,14.41,0,0,0,.66-5.1V24.1a4.68,4.68,0,0,0-1.46-3.75,5.13,5.13,0,0,0-3.47-1.26,15,15,0,0,0-3.5.36V37.27a14.82,14.82,0,0,0,.65,5.1,5.73,5.73,0,0,0,3,2.8v.23H.68v-.23a5.85,5.85,0,0,0,3-2.8,15,15,0,0,0,.68-5.1v-12c0-2.64-.27-4.47-.81-5.47A6.71,6.71,0,0,0,0,17.17v-.23a113.54,113.54,0,0,0,16.07-2.68h.26v4.6a15.61,15.61,0,0,1,4.86-3.26,15.17,15.17,0,0,1,6.28-1.34q6.36,0,8.4,5A14.7,14.7,0,0,1,41,15.74a17.59,17.59,0,0,1,7.16-1.48,9.29,9.29,0,0,1,6.4,2.33c1.75,1.55,2.62,4.06,2.62,7.51V37.27a14.82,14.82,0,0,0,.65,5.1,5.77,5.77,0,0,0,3,2.8Z"/><path class="cls-1" d="M81.13,23.05c0-4.64-1-6.95-3.13-6.95a3.34,3.34,0,0,0-2.58,1q-1.86,2-1.87,10.57v.23l7.58-1.31ZM65.73,41.79A15.18,15.18,0,0,1,61.56,30.7a16,16,0,0,1,4.7-11.62A15.2,15.2,0,0,1,77.6,14.26q6.68,0,10.18,2.91t3.43,8.46V29H73.55q.26,5.43,2.66,8a8.17,8.17,0,0,0,6.28,2.58,17.6,17.6,0,0,0,5.16-.74A12.92,12.92,0,0,0,91.73,37l.26.17a24.53,24.53,0,0,1-4.64,5.42,15.6,15.6,0,0,1-10.23,3.5q-7.22,0-11.39-4.28"/><path class="cls-1" d="M106.47,9.18a6.17,6.17,0,0,1-4.24,1.6A6.08,6.08,0,0,1,98,9.18a5.13,5.13,0,0,1-1.78-3.82A5,5,0,0,1,98,1.57,6.1,6.1,0,0,1,102.23,0a6.19,6.19,0,0,1,4.24,1.57,4.87,4.87,0,0,1,1.78,3.79,5,5,0,0,1-1.78,3.82"/><path class="cls-1" d="M172.32,42.37a14.57,14.57,0,0,1-.65-5.1V2.43s-10.83,2.34-15.56,2.73v.23c1.82.76,3.28,3.65,3.28,8.08v23.8a14.7,14.7,0,0,1-.65,5.1c-.4,1-2,2.53-2.72,2.53a5.62,5.62,0,0,1-2.5-1.54,30.45,30.45,0,0,1-3.59-4.69l-9.24-13.6,3.24-3.29a22.39,22.39,0,0,1,5.51-3.88,27.77,27.77,0,0,1,6.45-2.56V15H135.05v.35a15.87,15.87,0,0,1,3.8,2.36,3.06,3.06,0,0,1,1,2.71c-.11,1.06-.9,2.28-2.37,3.64l-6.06,5.59,5.19,9.27c1.73,3,3.13,4.89,4.21,5.53s3.06,1,5.93,1h28.61v-.23a5.7,5.7,0,0,1-3-2.8"/><path class="cls-1" d="M196.14,23.05c0-4.64-1-6.95-3.13-6.95a3.31,3.31,0,0,0-2.58,1q-1.87,2-1.87,10.57v.23l7.58-1.31Zm-15.4,18.74a15.18,15.18,0,0,1-4.17-11.09,15.93,15.93,0,0,1,4.7-11.62,15.2,15.2,0,0,1,11.34-4.82q6.67,0,10.17,2.91t3.44,8.46V29H188.56q.25,5.43,2.66,8a8.16,8.16,0,0,0,6.28,2.58,17.48,17.48,0,0,0,5.15-.74A12.72,12.72,0,0,0,206.73,37l.26.17a24.52,24.52,0,0,1-4.63,5.42,15.61,15.61,0,0,1-10.24,3.5q-7.22,0-11.38-4.28"/><path class="cls-1" d="M111.62,45.4H92.31v-.23a5.85,5.85,0,0,0,3-2.8,15,15,0,0,0,.68-5.1v-12A20.88,20.88,0,0,0,95.69,21c-.52-2.31-1.79-4.37-2.93-4.84V15.9c4.47-.35,15.2-1.64,15.2-1.64v23a14.82,14.82,0,0,0,.65,5.1,5.7,5.7,0,0,0,3,2.8Z"/><path class="cls-1" d="M133.23,45.4H113.92v-.23a5.93,5.93,0,0,0,3-2.8,15.31,15.31,0,0,0,.68-5.1V13.47a20.93,20.93,0,0,0-.28-4.33c-.53-2.31-1.79-4.36-2.94-4.84V4.07c4.48-.35,15.21-1.64,15.21-1.64V37.27a14.86,14.86,0,0,0,.64,5.1,5.76,5.76,0,0,0,3,2.8Z"/></g></g></svg>