<svg xmlns="http://www.w3.org/2000/svg" viewBox="0 0 134.04 30"><defs><style>.cls-1{fill:#fff;}</style></defs><title>meikle-logo-white</title><g id="Capa_2" data-name="Capa 2"><g id="Capa_1-2" data-name="Capa 1"><path class="cls-1" d="M39.4,29.56H26.88v-.15a4,4,0,0,0,2-1.82,9.54,9.54,0,0,0,.42-3.32V15.7a2.86,2.86,0,0,0-1.09-2.43,4.21,4.21,0,0,0-2.62-.84,7.38,7.38,0,0,0-2.29.27,7.71,7.71,0,0,1,.52,3v8.57a9.37,9.37,0,0,0,.43,3.32,3.7,3.7,0,0,0,2,1.82v.15H13.66v-.15a3.84,3.84,0,0,0,1.95-1.82A9.54,9.54,0,0,0,16,24.27V15.7a3.05,3.05,0,0,0-.94-2.45,3.35,3.35,0,0,0-2.25-.82,10,10,0,0,0-2.26.23V24.27A9.71,9.71,0,0,0,11,27.59a3.67,3.67,0,0,0,2,1.82v.15H.44v-.15a3.79,3.79,0,0,0,1.93-1.82,9.69,9.69,0,0,0,.44-3.32V16.48a8.42,8.42,0,0,0-.52-3.57A4.4,4.4,0,0,0,0,11.18V11A73.65,73.65,0,0,0,10.41,9.29h.17v3a10.12,10.12,0,0,1,3.14-2.12,9.79,9.79,0,0,1,4.07-.87q4.13,0,5.44,3.22a9.51,9.51,0,0,1,3.32-2.26,11.44,11.44,0,0,1,4.64-1,6,6,0,0,1,4.15,1.51c1.13,1,1.69,2.65,1.69,4.9v8.57a9.37,9.37,0,0,0,.43,3.32,3.7,3.7,0,0,0,1.94,1.82Z"/><path class="cls-1" d="M52.54,15c0-3-.66-4.53-2-4.53a2.15,2.15,0,0,0-1.67.65C48,12,47.63,14.31,47.63,18v.15l4.91-.85Zm-10,12.2A9.91,9.91,0,0,1,39.87,20a10.43,10.43,0,0,1,3-7.57,9.8,9.8,0,0,1,7.34-3.13q4.32,0,6.59,1.89a6.69,6.69,0,0,1,2.23,5.51v2.22H47.63a8,8,0,0,0,1.72,5.21,5.3,5.3,0,0,0,4.07,1.67,11.29,11.29,0,0,0,3.34-.48,8.55,8.55,0,0,0,2.64-1.23l.17.11a15.88,15.88,0,0,1-3,3.53A10.11,10.11,0,0,1,49.94,30a9.84,9.84,0,0,1-7.37-2.79"/><path class="cls-1" d="M69,6A4,4,0,0,1,66.2,7a3.93,3.93,0,0,1-2.73-1,3.36,3.36,0,0,1-1.15-2.49A3.3,3.3,0,0,1,63.47,1,4,4,0,0,1,66.2,0,4,4,0,0,1,69,1,3.2,3.2,0,0,1,70.1,3.49,3.25,3.25,0,0,1,69,6"/><path class="cls-1" d="M111.59,27.59a9.66,9.66,0,0,1-.42-3.32V1.58s-7,1.52-10.08,1.78v.15c1.18.49,2.13,2.38,2.13,5.26v15.5a9.54,9.54,0,0,1-.42,3.32c-.27.65-1.29,1.65-1.76,1.65a3.61,3.61,0,0,1-1.62-1,20,20,0,0,1-2.33-3.06l-6-8.86,2.1-2.14a14.51,14.51,0,0,1,3.56-2.52A18.06,18.06,0,0,1,101,10V9.76H87.46V10a10.27,10.27,0,0,1,2.45,1.53,2,2,0,0,1,.63,1.77A4.21,4.21,0,0,1,89,15.66L85.09,19.3l3.35,6a10.63,10.63,0,0,0,2.73,3.6,8.17,8.17,0,0,0,3.84.62h18.53v-.15a3.68,3.68,0,0,1-2-1.82"/><path class="cls-1" d="M127,15c0-3-.66-4.53-2-4.53a2.13,2.13,0,0,0-1.67.65c-.81.88-1.22,3.18-1.22,6.88v.15l4.91-.85Zm-10,12.2a9.91,9.91,0,0,1-2.7-7.22,10.43,10.43,0,0,1,3-7.57,9.82,9.82,0,0,1,7.35-3.13q4.32,0,6.58,1.89a6.63,6.63,0,0,1,2.23,5.51v2.22H122.1a8.1,8.1,0,0,0,1.72,5.21,5.33,5.33,0,0,0,4.07,1.67,11.29,11.29,0,0,0,3.34-.48,8.33,8.33,0,0,0,2.64-1.23l.17.11a15.88,15.88,0,0,1-3,3.53A10.11,10.11,0,0,1,124.41,30,9.86,9.86,0,0,1,117,27.21"/><path class="cls-1" d="M72.28,29.56H59.78v-.15a3.83,3.83,0,0,0,1.93-1.82,10,10,0,0,0,.44-3.32V16.48A14.08,14.08,0,0,0,62,13.65c-.34-1.5-1.16-2.84-1.9-3.15v-.15c2.89-.23,9.84-1.06,9.84-1.06v15a9.66,9.66,0,0,0,.42,3.32,3.68,3.68,0,0,0,2,1.82Z"/><path class="cls-1" d="M86.27,29.56H73.77v-.15a3.83,3.83,0,0,0,1.93-1.82,10,10,0,0,0,.44-3.32V8.77A14,14,0,0,0,76,6c-.34-1.5-1.16-2.84-1.9-3.15V2.65C77,2.42,83.9,1.59,83.9,1.59V24.27a9.66,9.66,0,0,0,.42,3.32,3.68,3.68,0,0,0,2,1.82Z"/></g></g></svg>